<svg xmlns="http://www.w3.org/2000/svg" viewBox="0 0 512 512">
  <defs>
    <linearGradient id="grad" x1="0%" y1="0%" x2="100%" y2="100%">
      <stop offset="0%" stop-color="#06b6d4"/>
      <stop offset="100%" stop-color="#10b981"/>
    </linearGradient>
  </defs>
  <!-- P -->
  <path d="M96 96 L96 416 L144 416 L144 288 L224 288 C280 288 320 248 320 208 L320 176 C320 136 280 96 224 96 Z M144 144 L224 144 C252 144 272 160 272 176 L272 208 C272 224 252 240 224 240 L144 240 Z" fill="url(#grad)"/>
  <!-- T -->
  <path d="M288 96 L288 144 L368 144 L368 416 L416 416 L416 144 L464 144 L464 96 Z" fill="url(#grad)"/>
</svg>
